<?xml version="1.0" standalone="no"?>
<!DOCTYPE svg PUBLIC "-//W3C//DTD SVG 20010904//EN"
 "http://www.w3.org/TR/2001/REC-SVG-20010904/DTD/svg10.dtd">
<svg version="1.0" xmlns="http://www.w3.org/2000/svg"
 width="354.000000pt" height="300.000000pt" viewBox="0 0 354.000000 300.000000"
 preserveAspectRatio="xMidYMid meet">

<g transform="translate(0.000000,300.000000) scale(0.100000,-0.100000)"
fill="#ffffff" stroke="none">
<path d="M1023 2983 l-32 -4 -3 -117 -3 -117 -60 -21 c-101 -36 -115 -37 -115
-15 0 35 -16 31 -57 -12 -119 -124 -229 -310 -277 -470 -79 -263 -80 -575 -1
-877 13 -52 22 -79 19 -60 -57 382 25 724 234 983 198 244 551 343 811 226
l66 -30 -75 69 -74 69 11 34 c6 19 24 63 39 99 l27 65 -54 47 c-29 27 -57 47
-62 45 -5 -1 -25 -41 -44 -87 -18 -47 -37 -91 -40 -99 -5 -10 -21 -12 -76 -6
-38 3 -78 10 -90 14 -22 8 -21 2 -25 174 l-2 97 -42 -2 c-24 0 -57 -3 -75 -5z"/>
<path d="M662 2867 c-29 -29 -52 -58 -52 -64 0 -16 22 -63 29 -63 3 1 30 23
60 50 53 48 53 49 41 84 -6 20 -15 38 -19 40 -4 3 -31 -18 -59 -47z"/>
<path d="M316 2544 l-44 -76 27 -46 c15 -26 39 -66 54 -89 l26 -42 -20 -58
c-28 -83 -62 -163 -68 -163 -3 0 -40 20 -81 45 l-75 45 -24 -76 -24 -76 76
-76 76 -77 -15 -115 c-8 -63 -16 -115 -17 -116 -1 -2 -45 -9 -97 -16 -93 -14
-95 -14 -94 -41 0 -15 1 -58 2 -95 l2 -68 96 4 c52 3 99 1 104 -4 5 -5 12 -58
15 -119 6 -89 4 -119 -10 -158 l-16 -48 68 -102 c78 -118 202 -252 286 -309
99 -67 175 -91 297 -92 92 -1 119 3 217 33 154 46 166 57 58 53 -145 -6 -299
45 -412 135 -230 183 -365 477 -404 879 -23 232 31 532 131 735 l33 66 -54 71
c-29 40 -57 72 -61 72 -4 0 -28 -34 -52 -76z"/>
<path d="M1701 2520 l-53 -79 53 -50 c30 -27 57 -47 60 -45 9 5 89 141 89 151
0 5 -21 30 -47 55 l-48 47 -54 -79z"/>
<path d="M1182 2429 c-50 -6 -222 -54 -222 -62 0 -1 39 -2 88 -3 103 -1 196
-24 272 -67 62 -35 175 -145 205 -200 l20 -37 163 0 c130 0 162 3 155 13 -146
190 -232 264 -375 322 -34 14 -90 28 -123 31 -33 3 -73 6 -90 8 -16 1 -59 -1
-93 -5z"/>
<path d="M1969 2141 l-24 -20 20 -38 c17 -33 25 -38 58 -41 l38 -3 -25 48
c-40 77 -40 76 -67 54z"/>
<path d="M1210 1499 l0 -321 134 4 c151 3 163 9 197 83 34 74 14 214 -35 242
-14 8 -13 14 9 57 32 63 33 127 3 186 -13 25 -34 51 -48 57 -16 8 -69 13 -142
13 l-118 0 0 -321z m230 201 c24 -24 27 -91 5 -114 -19 -18 -68 -29 -116 -24
l-34 3 -3 78 -3 77 66 0 c52 0 69 -4 85 -20z m11 -259 c20 -16 24 -29 24 -70
0 -72 -16 -85 -107 -85 l-73 -1 -3 88 -3 87 70 0 c53 0 74 -4 92 -19z"/>
<path d="M1756 1803 c-11 -35 -156 -610 -156 -617 0 -4 19 -6 42 -4 39 3 43 6
51 38 4 19 13 52 18 73 l10 37 79 0 c52 0 82 -4 87 -12 4 -7 15 -40 23 -73
l16 -60 42 -3 c27 -2 42 1 42 8 0 7 -36 149 -80 316 -44 168 -80 307 -80 309
0 3 -20 5 -44 5 -34 0 -46 -4 -50 -17z m78 -250 c14 -56 26 -106 26 -112 0 -7
-23 -11 -55 -11 -41 0 -55 4 -55 14 0 14 37 179 46 205 7 22 11 13 38 -96z"/>
<path d="M2070 1500 l0 -320 35 0 35 0 1 243 c0 150 4 232 9 217 5 -14 23
-115 40 -225 17 -110 34 -208 36 -217 4 -13 16 -18 43 -18 l38 0 38 233 c21
127 42 236 46 242 5 5 9 -98 9 -233 l0 -242 35 0 35 0 0 320 0 321 -62 -3 -63
-3 -35 -207 c-19 -113 -38 -209 -41 -212 -3 -3 -20 81 -38 187 -18 105 -35
202 -38 215 -5 20 -11 22 -64 22 l-59 0 0 -320z"/>
<path d="M2560 1500 l0 -320 160 0 160 0 0 50 0 49 -117 3 -118 3 -3 88 -3 87
106 0 105 0 0 55 0 55 -105 0 -106 0 3 73 3 72 113 3 112 3 0 49 0 50 -155 0
-155 0 0 -320z"/>
<path d="M2950 1499 l0 -321 114 4 c137 4 156 13 201 103 29 59 30 63 30 215
0 152 -1 156 -30 215 -46 91 -73 105 -206 105 l-109 0 0 -321z m225 191 c35
-33 48 -96 43 -217 -5 -131 -20 -167 -76 -183 -20 -7 -53 -10 -72 -8 l-35 3
-3 205 c-1 112 0 211 3 219 8 22 111 8 140 -19z"/>
<path d="M1120 1060 c0 -20 7 -20 1130 -20 1123 0 1130 0 1130 20 0 20 -7 20
-1130 20 -1123 0 -1130 0 -1130 -20z"/>
<path d="M84 1025 c-5 -21 1 -52 21 -112 15 -46 31 -83 35 -83 11 0 50 45 50
58 0 11 -56 111 -83 147 -15 19 -16 19 -23 -10z"/>
<path d="M1412 748 c-176 -219 -382 -332 -572 -313 -130 14 -287 81 -414 178
-27 20 -52 37 -55 37 -3 0 -21 -29 -40 -64 -26 -49 -32 -71 -28 -95 7 -31 47
-101 59 -101 3 0 33 31 65 69 32 38 63 70 68 70 14 1 155 -117 162 -134 3 -8
-9 -56 -26 -107 l-31 -92 47 -48 c26 -26 52 -48 59 -48 6 0 31 43 55 95 25 54
50 95 58 95 35 0 147 -25 153 -34 4 -6 8 -43 8 -82 0 -39 3 -86 6 -103 6 -31
7 -31 70 -31 l64 0 0 110 0 109 64 20 c35 11 80 23 99 26 34 7 37 5 42 -21 4
-16 8 -33 9 -38 3 -12 99 90 152 161 55 73 126 217 153 309 12 39 21 76 21 83
0 7 -31 11 -99 11 l-99 0 -50 -62z"/>
</g>
</svg>
